<?xml version="1.0" encoding="utf-8"?>
<!-- Generator: Adobe Illustrator 19.0.0, SVG Export Plug-In . SVG Version: 6.00 Build 0)  -->
<svg version="1.1" id="Layer_1" xmlns="http://www.w3.org/2000/svg" xmlns:xlink="http://www.w3.org/1999/xlink" x="0px" y="0px"
	 viewBox="-230 164 299 283.3" style="enable-background:new -230 164 299 283.3;" xml:space="preserve">
<style type="text/css">
	.st0{fill:#0099FF;}
</style>
<g>
	<path class="st0" d="M-221.8,305.3c0-12.6,0.2-25.2-0.1-37.9c-0.2-7.4,2.5-12.5,8.7-16.6c40.7-26.9,81.3-53.9,121.7-81.1
		c7.2-4.8,13-4.4,19.9,0.2c40.2,27,80.5,53.9,120.9,80.6c6.5,4.3,9.3,9.5,9.2,17.3c-0.3,25.2-0.3,50.5,0,75.7
		c0.1,7.8-2.6,13-9.1,17.4C9.2,387.4-30.8,414-70.7,441c-7.6,5.1-13.8,5.6-21.7,0.3c-39.8-26.9-79.9-53.6-120-80
		c-6.9-4.5-9.9-9.9-9.6-18.1C-221.5,330.5-221.8,317.9-221.8,305.3z M-188.2,263c14.2,9.5,27.3,18.5,40.8,27c1.3,0.8,4.8-1,6.9-2.4
		c10-6.5,19.3-14.2,29.9-19.6c13.9-7.1,19.2-16.9,17.3-32.4c-1.4-11.2-0.3-22.6-0.3-35.8C-126,221.5-156.3,241.7-188.2,263z
		 M-69.9,199.9c0,19-0.2,35.8,0.2,52.6c0.1,2.3,2.5,5.3,4.6,6.8c14.2,9.8,28.5,19.5,43,28.7c2.1,1.4,6.5,1.6,8.6,0.4
		c12.6-7.9,24.8-16.3,38.3-25.4C-6.7,242.1-37.2,221.7-69.9,199.9z M-93.5,411.6c0-19.2,0.2-36-0.2-52.8c-0.1-2.3-2.6-5.2-4.7-6.7
		c-14.2-9.8-28.5-19.4-42.9-28.8c-2-1.3-5.9-1.9-7.7-0.8c-12.8,8.1-25.2,16.6-39,25.9C-156.6,369.5-126.1,389.9-93.5,411.6z
		 M-69.9,411.5c32.4-21.6,63.1-42.1,94.6-63.1C11.2,339.4-0.7,331-13,323.3c-2.3-1.4-7-1.2-9.4,0.3c-14.3,9-28.3,18.5-42.2,28.1
		c-2.2,1.5-5,4.3-5.1,6.5C-70.1,375.4-69.9,392.5-69.9,411.5z M-81.7,277.1c-14,9.4-27.9,18.7-42.6,28.6c13.5,9.1,26.1,17.7,38.7,26
		c1.6,1,4.7,1.8,6,1c13.4-8.6,26.6-17.6,40.6-26.9C-54.1,295.6-67.8,286.5-81.7,277.1z M-197.1,285.9c0,14,0,26.2,0,39.7
		c10.4-7,19.6-13.2,29.7-19.9C-177.8,298.8-186.8,292.8-197.1,285.9z M4,305.7c10.3,6.8,19.6,13.1,29.8,19.9c0-14,0-26.1,0-39.7
		C23.4,292.8,14.2,298.9,4,305.7z"/>
</g>
</svg>
