<?xml version="1.0" encoding="utf-8"?>
<!-- Generator: Adobe Illustrator 19.0.0, SVG Export Plug-In . SVG Version: 6.00 Build 0)  -->
<svg version="1.1" id="Layer_1" xmlns="http://www.w3.org/2000/svg" xmlns:xlink="http://www.w3.org/1999/xlink" x="0px" y="0px"
	 viewBox="-230 137.3 330.7 338.7" style="enable-background:new -230 137.3 330.7 338.7;" xml:space="preserve">
<style type="text/css">
	.st0{fill:#0099FF;}
</style>
<g>
	<path class="st0" d="M-64.9,464c-88.3-0.1-159.8-71.7-159.8-160.1c0-88.5,71.9-160.1,160.5-159.9C24,144.1,95.4,215.8,95.3,304.3
		C95.3,392.6,23.6,464-64.9,464z M-42.3,321.6c-46.3,16.3-80.7,44.9-103.8,86.7c0.5,1,0.6,1.3,0.8,1.5c0.5,0.5,1,0.9,1.5,1.3
		C-106,438-65.1,444.1-21,430c3.6-1.1,3.6-3.2,3.1-6c-4-20.2-7.4-40.6-12-60.6C-33.1,349.6-37.9,336.3-42.3,321.6z M-164.9,391.8
		c26-45.9,65.1-74.4,113.6-92.1c-2.9-6.4-5.7-12.9-8-18c-23.7,4.5-46.2,10-69.1,12.8c-22.8,2.9-46,3.1-69.4,4.5
		C-199,333.7-187.9,364.5-164.9,391.8z M-72.6,257.6c0.1-0.9,0.1-1.1,0.1-1.3c-13.8-25.2-30.4-48.4-50.5-69
		c-0.9-0.9-3.4-1.2-4.6-0.5c-4.7,2.5-9.3,5.2-13.6,8.3c-26.5,18.9-43.9,44-52.6,76.1C-152.3,273.5-112.1,269.1-72.6,257.6z
		 M-14.3,319.4c10.6,31.2,17.6,63.2,21.7,96.1C36.9,401,69.7,347.6,67,319.2C54.2,316.5-4,316.6-14.3,319.4z M20.3,201.6
		c-35.7-31.1-87-36.4-117.1-26.1C-76,197-59.5,221.4-45,247.6C-19.8,236.6,2.7,222.9,20.3,201.6z M-33.5,270.4
		c3.1,7.4,6.2,14.6,9,21.8c1.1,3,2.6,3.8,5.8,3.7c27.4-0.5,54.9-0.7,82.3-1.1c1.4,0,2.9,0,4.3,0c-0.1-24.6-15.7-62.5-31.3-76.7
		C18.9,242.9-6.2,258.1-33.5,270.4z"/>
</g>
</svg>
