<?xml version="1.0" encoding="utf-8"?>
<!-- Generator: Adobe Illustrator 19.0.0, SVG Export Plug-In . SVG Version: 6.00 Build 0)  -->
<svg version="1.1" id="Layer_1" xmlns="http://www.w3.org/2000/svg" xmlns:xlink="http://www.w3.org/1999/xlink" x="0px" y="0px"
	 viewBox="-230 165.3 330.7 293.3" style="enable-background:new -230 165.3 330.7 293.3;" xml:space="preserve">
<style type="text/css">
	.st0{fill:#0099FF;}
	.st1{fill:#FFFFFF;}
</style>
<g id="XMLID_115_">
	<path id="XMLID_122_" class="st0" d="M96.2,309.8c2.4,21.3-0.1,44.5-6.6,64c-6.6,19.9-19.7,36.6-37.4,47.7
		c-8.8,5.5-18.4,9.5-28.4,12.4c-31.6,9.2-64,10.8-96.6,10c-31.3-0.7-62.3-2.8-92.1-14.4c-20.2-7.9-38.4-20.7-49-40
		c-12.7-22.9-15.4-52.8-13.2-78.4c1.9-21.7,8.4-42.8,21.9-60.2c3.3-4.2,3.7-7.8,2.4-12.8c-4.4-16.3-5.2-33.1-0.4-49.3
		c7.1-24.2,4.1-20.6,27.6-16.8c19,3.1,33.6,15.1,48.9,25.7c2.5,1.7,6.4,2.8,9.3,2.2c33.8-6.7,67.5-7.8,101.3-0.8
		c6.2,1.3,10.6-0.1,15.4-3.9c17.3-13.3,35.8-24,58.4-25.7c5.6-0.4,8.4,0.9,10.5,6.3c7.8,20.4,8.7,41.1,3.4,62.1
		c-1.2,4.6-0.3,7.9,2,12.1c7.7,13.8,16.3,28.7,20,44.2C94.8,299.3,95.7,304.5,96.2,309.8z M-66.8,426.8c5.5-0.2,10.9-0.8,16.4-1.1
		c13.8-0.8,27.6-1.3,41.3-3.6c10.8-1.8,21.3-4.9,31.1-9.8c25.7-13.1,37.6-46.4,27.8-76.9c-8.5-26.3-29.9-39.1-60.7-34
		c-36.4,6.1-72.5,6.2-108.9,0.1c-34.4-5.8-57.5,10.5-63.3,42.8c-6.7,37,12.2,66.8,50.3,75.3c12.9,2.9,26,4.4,39.2,5.7
		c7.2,0.7,14.6,1.5,21.9,1.6C-70.1,426.9-68.4,426.9-66.8,426.8z"/>
	<path id="XMLID_118_" class="st1" d="M-66.7,426.3c-22.2-0.1-44.5-1.9-66.1-6.7c-38-8.5-56.9-38.4-50.3-75.3
		c5.8-32.3,28.9-48.5,63.3-42.8c36.4,6.1,72.5,6,108.9-0.1c30.7-5.1,52.2,7.7,60.7,34c9.8,30.4-2.1,63.8-27.8,76.9
		c-18.3,9.3-38.9,12.2-59.2,13.3C-47,426.1-56.8,426.4-66.7,426.3z M-103.4,356.7c0.2-11-2.1-21.2-9.4-29.8
		c-8.3-9.7-20.4-9.9-29.1-0.8c-14.4,15.2-14.4,45.7-0.1,60.9c9,9.6,21.4,9.1,29.6-1.3C-105.9,377.3-103.1,367.5-103.4,356.7z
		 M-27.9,355.6c0.1,12.5,2.6,24.1,12.1,33.1c7.2,6.8,17.5,6.9,24.9,0.3c16.6-14.6,16.5-49.9,0-64.6c-7.7-6.8-18.1-6.6-25.3,0.8
		C-24.5,333.6-28,343.9-27.9,355.6z"/>
	<path id="XMLID_117_" class="st0" d="M-103.5,356.7c0.4,10.8-2.4,20.6-9.1,29.1c-8.2,10.4-20.6,10.8-29.6,1.3
		c-14.3-15.3-14.2-45.8,0.1-60.9c8.7-9.2,20.9-8.9,29.1,0.8C-105.5,335.5-103.3,345.7-103.5,356.7z"/>
	<path id="XMLID_116_" class="st0" d="M-27.9,355.6c-0.1-11.7,3.4-22,11.6-30.4c7.2-7.4,17.6-7.6,25.3-0.8c16.6,14.7,16.6,50,0,64.6
		c-7.4,6.5-17.6,6.5-24.9-0.3C-25.3,379.7-27.8,368-27.9,355.6z"/>
</g>
</svg>
